<?xml version="1.0" encoding="utf-8"?>
<svg viewBox="23.113 18.363 448.003 447.999" xmlns="http://www.w3.org/2000/svg">
  <path d="M 407.116 466.362 C 371.826 466.362 343.116 437.252 343.116 401.482 C 343.116 368.192 371.786 336.082 387.196 318.842 C 389.066 316.742 390.686 314.932 391.876 313.532 C 399.845 304.035 414.457 304.035 422.426 313.532 C 423.556 314.842 425.056 316.532 426.786 318.462 C 442.286 335.762 471.116 367.972 471.116 401.512 C 471.116 437.252 442.406 466.362 407.116 466.362 Z" style="fill: rgb(255, 255, 255);"/>
  <path d="M 389.346 263.002 L 158.006 33.582 C 137.669 13.29 104.744 13.29 84.406 33.582 L 79.896 38.092 C 69.877 47.948 64.164 61.369 64.006 75.422 C 63.928 89.283 69.423 102.593 79.256 112.362 L 120.766 153.862 L 36.116 238.362 C 27.653 246.845 22.967 258.381 23.116 270.362 C 23.216 282.055 28.094 293.197 36.616 301.202 L 167.856 427.202 C 184.949 443.585 211.941 443.506 228.936 427.022 L 353.046 306.742 C 355.291 304.51 358.161 303.014 361.276 302.452 C 365.221 301.822 369.212 301.534 373.206 301.592 L 373.506 301.592 C 390.85 301.622 401.722 282.866 393.076 267.831 C 392.058 266.06 390.803 264.435 389.346 263.002 Z M 143.406 131.212 L 101.876 89.692 C 94.029 81.875 94.029 69.169 101.876 61.352 L 107.036 56.202 C 114.875 48.36 127.588 48.36 135.426 56.202 L 177.116 97.572 L 143.406 131.212 Z" style="fill: rgb(255, 255, 255);"/>
  <path class="cls-1" d="M 202.156 167.345 C 125.234 167.345 77.155 250.617 115.616 317.233 C 154.079 383.85 250.231 383.85 288.693 317.233 C 297.463 302.043 302.08 284.811 302.08 267.271 C 302.08 212.081 257.341 167.345 202.156 167.345 Z M 229.479 221.553 L 160.958 255.707 L 160.958 278.802 L 229.479 312.956 L 229.479 287.698 L 181.663 267.352 L 229.479 247.038 L 229.479 221.553 Z" style="fill-rule: evenodd;"/>
</svg>