<?xml version="1.0" encoding="UTF-8"?>
<!DOCTYPE svg PUBLIC "-//W3C//DTD SVG 1.1//EN" "http://www.w3.org/Graphics/SVG/1.1/DTD/svg11.dtd">
<!-- Creator: CorelDRAW 2017 -->
<svg xmlns="http://www.w3.org/2000/svg" xml:space="preserve" width="38.8086mm" height="29.2491mm" version="1.1" style="shape-rendering:geometricPrecision; text-rendering:geometricPrecision; image-rendering:optimizeQuality; fill-rule:evenodd; clip-rule:evenodd"
viewBox="0 0 1404.34 1058.42"
 xmlns:xlink="http://www.w3.org/1999/xlink">
 <defs>
  <!-- <style type="text/css">
   <![CDATA[
    .str0 {stroke:white;stroke-width:7.24;stroke-miterlimit:22.9256}
    .str1 {stroke:white;stroke-width:7.24;stroke-miterlimit:22.9256}
    .fil0 {fill:white}
   ]]>
  </style> -->
 </defs>
 <g id="Ebene_x0020_1">
  <metadata id="CorelCorpID_0Corel-Layer"/>
  <g id="_2130380587888">
   <rect class="fil0 str0" transform="matrix(3.10259E-15 -0.397941 0.5 4.4983E-14 677.229 912.009)" width="1695.9" height="99.76"/>
   <rect class="fil0 str0" x="101.37" y="119.03" width="1200.78" height="131.67"/>
   <path class="fil0 str1" d="M1400.72 101.32c0,-43.79 -55.36,-97.7 -100.68,-97.7l-1195.74 0c-45.32,0 -100.68,54.02 -100.68,97.7l0 855.77c0,43.69 55.26,97.7 100.68,97.7l1195.74 0c45.42,0 100.68,-53.92 100.68,-97.7l0 -855.77zm-1255.21 45.09l1113.32 0c0,1.99 1.69,3.62 3.75,3.62l0 758.36c-2.07,0 -3.75,1.63 -3.75,3.62l-1113.32 0c0,-1.99 -1.69,-3.62 -3.75,-3.62l0 -758.36c2.07,0 3.75,-1.63 3.75,-3.62z"/>
  </g>
 </g>
</svg>
