<svg xmlns="http://www.w3.org/2000/svg" width="377.96" height="188.987"><path d="M2834.71 0H0v1417.34h2834.71V0" style="fill:#214ca1;fill-opacity:0;fill-rule:nonzero;stroke:none" transform="matrix(.13333 0 0 -.13333 0 188.987)"/><path d="M618.012 799.305H471.539v146.472h146.473ZM354.359 1062.95V682.121h380.832v380.829H354.359M998.844 799.305H852.367v146.472h146.477V799.305M1232.15 913.02h61.7c28.2 0 39.45 13.132 39.45 32.398 0 4.461-1.39 29.312-31.36 29.312h-69.79zm-.28-144.887h76.78c27.35 0 39.65 19.558 39.65 36.847 0-8 3.52 31.551-35.76 31.551h-80.67zm-115.86 294.817h212.18c77.88 0 113.46-51.93 113.46-99.387 0-34.188-13.15-56.266-48.41-76.778 44.48-16.445 68.66-46.094 68.66-91.847 0-54.711-39.73-112.774-133.43-112.774h-212.55l.09 380.786M1638.91 950.074l-32.38-127.015h69.24zm-56.35 112.876h122.68l139.73-380.341h-125.92l-18.44 56.957h-117.54l-15.62-56.664h-124.96l140.07 380.048M2040.65 949.836h116.99c0 64.574-48.59 124.504-163.88 124.504-126.47 0-165.63-69.79-165.63-120.875 0-82.367 100.8-104.27 103.93-105.246 15.05-4.739 77.62-21.504 93.24-27.09 13.53-4.832 26.48-15.672 26.48-30.149 0-22.234-26.48-32.917-48.53-32.917-14.16 0-61.74 4.687-61.74 55.125h-120.86c0-66.981 46.07-141.93 175.33-141.93 142.66 0 172.5 85.105 172.5 130.336 0 36.933-20.92 77.894-69.2 97.398-29.04 11.727-77.18 22-101.35 29.063-12.18 3.574-52.79 11.797-52.79 36.57 0 31.742 52.33 27.645 44.69 27.645 23.65 0 50.82-13.313 50.82-42.434M2188.35 1063.04h291.99V962.531h-175.32v-67.004h156.33v-96.039h-156.87V682.234h-116.7l.57 380.806M506.324 380.84l-.125.469-36.508 137.211h-22.906l-37.074-137.68h-1.457l-.113.488-32.336 137.192h-21.16l42.093-164.219h21.969l38.246 139.058h1.426l.121-.464 37.652-138.594h21.985L562.07 518.52h-20.707l-33.605-137.68h-1.434M580.168 424.414l.043.676c.32 4.695 1.363 9.172 3.066 13.293 1.735 4.156 4.118 7.832 7.094 10.972 2.949 3.11 6.574 5.625 10.746 7.434 4.156 1.809 8.875 2.727 14.035 2.727 5.016 0 9.649-.918 13.801-2.727 4.164-1.809 7.82-4.266 10.871-7.312 3.051-3.032 5.508-6.719 7.317-10.969a41.47 41.47 0 0 0 3.172-13.418l.054-.676zm79.07 28.109c-4.187 6.7-9.812 12.262-16.718 16.598-6.911 4.317-15.711 6.527-26.2 6.527-8.058 0-15.586-1.566-22.343-4.589a52.99 52.99 0 0 1-17.629-12.832c-4.942-5.469-8.848-12.036-11.59-19.497-2.746-7.457-4.137-15.82-4.137-24.8.309-9.051 1.68-17.5 4.012-25.078 2.375-7.622 5.953-14.243 10.676-19.711 4.683-5.461 10.574-9.782 17.507-12.813 6.922-3.047 15.219-4.609 24.645-4.609 13.394 0 24.664 3.422 33.473 10.09 8.621 6.55 14.332 16.382 16.988 29.23H649.73c-1.761-7.758-5.359-13.641-10.671-17.5-5.411-3.93-12.442-5.898-20.891-5.898-6.57 0-12.344 1.078-17.188 3.281-4.843 2.207-8.89 5.18-12.031 8.879-3.113 3.629-5.422 7.937-6.844 12.719-1.41 4.75-2.042 9.859-1.894 15.14l.016.621h89.711c.242 6.957-.411 14.414-1.969 22.192-1.606 7.91-4.547 15.347-8.731 22.05M808.328 367.641c-6.265 0-11.75 1.257-16.312 3.777-4.543 2.523-8.278 5.891-11.094 10.031-2.817 4.16-4.914 8.942-6.238 14.242a67.7 67.7 0 0 0-1.989 16.379c0 6.02.629 11.953 1.868 17.637 1.25 5.688 3.347 10.781 6.238 15.18 2.875 4.375 6.808 7.926 11.683 10.625 4.883 2.652 10.989 4.004 18.153 4.004 8.461 0 15.304-2.153 20.351-6.411 4.903-4.136 8.211-10.027 9.84-17.468h19.16c-.797 6.711-2.617 12.59-5.402 17.468-2.895 5.122-6.613 9.368-11.07 12.676-4.461 3.34-9.688 5.832-15.547 7.446-5.867 1.597-12.246 2.421-18.953 2.421-9.289 0-17.539-1.664-24.524-4.945-6.992-3.262-12.887-7.808-17.504-13.496-4.633-5.684-8.14-12.477-10.445-20.152-2.285-7.739-3.441-16.133-3.441-24.985 0-8.859 1.183-17.129 3.558-24.492 2.36-7.379 5.903-13.808 10.547-19.117 4.617-5.313 10.465-9.473 17.383-12.359 6.902-2.891 14.98-4.34 23.976-4.34 15.055 0 27.114 3.976 35.848 11.867 8.59 7.762 14.047 18.93 16.262 33.191h-18.879c-1.324-9.121-4.754-16.289-10.203-21.371-5.614-5.187-13.418-7.808-23.266-7.808M920.98 469.238c-6.828-4.539-13.531-11.715-18.23-21.297l-.172-.339h-.644v25.253h-17.286V354.301h18.442v52.668c0 7.761.777 14.715 2.324 20.672 1.57 6.011 4.102 11.211 7.551 15.41 3.433 4.219 8.043 7.515 13.699 9.707 5.461 2.129 12.106 3.222 19.774 3.301v19.589c-.461.016-.907.016-1.348.016-9.61 0-17.723-2.168-24.11-6.426M968.027 424.414l.047.676c.324 4.695 1.364 9.172 3.071 13.293 1.726 4.156 4.113 7.832 7.089 10.972 2.954 3.11 6.571 5.625 10.75 7.434 4.153 1.809 8.868 2.727 14.036 2.727 5.01 0 9.65-.918 13.8-2.727 4.16-1.809 7.82-4.266 10.87-7.312 3.05-3.032 5.51-6.719 7.32-10.969a41.676 41.676 0 0 0 3.17-13.418l.05-.676zm79.073 28.109c-4.19 6.7-9.81 12.262-16.72 16.598-6.9 4.317-15.71 6.527-26.2 6.527-8.059 0-15.582-1.566-22.34-4.589a52.96 52.96 0 0 1-17.629-12.832c-4.941-5.469-8.844-12.036-11.59-19.497-2.742-7.457-4.133-15.82-4.133-24.8.301-9.051 1.68-17.5 4.012-25.078 2.371-7.622 5.953-14.243 10.676-19.711 4.679-5.461 10.574-9.782 17.508-12.813 6.914-3.047 15.214-4.609 24.646-4.609 13.39 0 24.66 3.422 33.47 10.09 8.62 6.55 14.33 16.382 16.99 29.23h-18.19c-1.77-7.758-5.36-13.641-10.68-17.5-5.41-3.93-12.44-5.898-20.89-5.898-6.565 0-12.339 1.078-17.182 3.281-4.844 2.207-8.899 5.18-12.032 8.879-3.117 3.629-5.425 7.937-6.843 12.719-1.414 4.75-2.043 9.859-1.899 15.14l.016.621h89.71c.25 6.957-.41 14.414-1.96 22.192-1.61 7.91-4.55 15.347-8.74 22.05M1158.09 395.352c0-2.832-.72-5.911-2.13-9.161-1.4-3.203-3.65-6.25-6.64-9.019-2.98-2.731-6.86-5.043-11.56-6.844-4.69-1.769-10.38-2.687-16.92-2.687-2.97 0-5.94.289-8.82.937-2.92.613-5.48 1.66-7.63 3.102a17.086 17.086 0 0 0-5.3 5.648c-1.37 2.344-2.06 5.211-2.06 8.551 0 5.043 1.17 9.121 3.49 12.07 2.31 2.949 5.32 5.262 8.95 6.801 3.61 1.578 7.71 2.711 12.21 3.418 4.23.66 8.72 1.281 13.34 1.852 4.41.539 8.65 1.25 12.58 2.07 3.89.84 7.06 2.148 9.48 3.949l1.01.781zm19.26-23.981c-.54 2.168-.81 5.559-.81 10.328v61.645c0 6.797-1.3 12.383-3.86 16.609-2.55 4.207-5.97 7.512-10.19 9.856-4.23 2.324-9.04 3.906-14.26 4.675-11.8 1.707-24.05 1.582-34.89-.91-5.92-1.386-11.24-3.633-15.78-6.758-4.52-3.086-8.2-7.183-10.93-12.168-2.65-4.878-4.17-10.875-4.52-17.847h18.44c.58 8.672 3.72 14.707 9.31 17.887 5.65 3.183 12.77 4.828 21.18 4.828 3.1 0 6.29-.239 9.48-.703 3.24-.469 6.19-1.426 8.8-2.856 2.63-1.441 4.83-3.531 6.48-6.227 1.68-2.726 2.54-6.359 2.54-10.785 0-3.867-1.17-6.89-3.47-8.922-2.22-1.996-5.27-3.527-9.06-4.535-3.72-1.011-8.09-1.812-12.95-2.363-4.8-.508-9.96-1.324-15.36-2.398a155.48 155.48 0 0 1-14.9-3.477c-4.78-1.352-9.09-3.398-12.79-6.051-3.67-2.621-6.69-6.078-8.96-10.32-2.27-4.211-3.42-9.75-3.42-16.391 0-5.91 1.04-10.988 3.08-15.148 2.01-4.121 4.84-7.559 8.39-10.18 3.55-2.629 7.72-4.57 12.39-5.699 4.72-1.141 9.82-1.699 15.15-1.699 8.21 0 15.97 1.41 23.06 4.218 7.04 2.809 13.31 7.461 18.64 13.829l1.11 1.359v-1.746c0-6.274 1.46-10.844 4.32-13.563 2.9-2.75 6.84-4.097 11.74-4.097 5.7 0 10.24.906 13.51 2.726v14.071c-2.05-.629-3.81-.918-5.39-.918-3.43 0-5.46 1.23-6.08 3.73M1291.94 424.414l.05.676c.3 4.64 1.33 9.14 3.07 13.293 1.72 4.156 4.09 7.859 7.07 10.972 2.97 3.125 6.59 5.625 10.76 7.434 4.15 1.809 8.87 2.727 14.03 2.727 5 0 9.65-.918 13.81-2.727 4.15-1.809 7.8-4.25 10.85-7.312 3.06-3.071 5.52-6.743 7.33-10.969 1.79-4.207 2.87-8.723 3.19-13.418l.04-.676zm78.67 28.109c-4.19 6.7-9.82 12.262-16.73 16.598-6.91 4.317-15.74 6.527-26.21 6.527-8.06 0-15.58-1.566-22.34-4.589a52.902 52.902 0 0 1-17.64-12.832c-4.95-5.469-8.83-12.036-11.58-19.497-2.73-7.457-4.12-15.82-4.12-24.8.3-8.989 1.64-17.43 4.01-25.078 2.37-7.622 5.95-14.274 10.67-19.711 4.7-5.461 10.6-9.782 17.5-12.813 6.92-3.047 15.22-4.609 24.66-4.609 13.39 0 24.64 3.422 33.45 10.09 8.61 6.55 14.34 16.382 17 29.23h-18.19c-1.78-7.758-5.37-13.641-10.68-17.5-5.41-3.93-12.44-5.898-20.89-5.898-6.56 0-12.34 1.078-17.19 3.281-4.85 2.207-8.89 5.18-12.03 8.879-3.14 3.679-5.44 7.961-6.84 12.719-1.41 4.769-2.04 9.859-1.88 15.14l.01.621h89.71c.23 7.071-.43 14.532-1.99 22.192-1.6 7.91-4.52 15.332-8.7 22.05M1519.95 367.641c-6.26 0-11.74 1.257-16.29 3.777-4.53 2.492-8.28 5.891-11.12 10.031-2.79 4.102-4.9 8.891-6.25 14.242a68.677 68.677 0 0 0-1.97 16.379c0 6.047.63 11.977 1.88 17.637 1.25 5.688 3.34 10.805 6.21 15.156 2.91 4.399 6.85 7.969 11.7 10.649 4.86 2.652 10.97 4.004 18.16 4.004 8.44 0 15.29-2.153 20.33-6.411 4.94-4.136 8.25-10.027 9.85-17.468h19.18c-.8 6.711-2.63 12.59-5.41 17.488-2.87 5.078-6.61 9.316-11.08 12.656-4.48 3.34-9.72 5.832-15.54 7.446-5.88 1.597-12.26 2.421-18.97 2.421-9.28 0-17.54-1.664-24.51-4.945-7.01-3.262-12.89-7.808-17.5-13.496-4.65-5.684-8.15-12.477-10.45-20.152-2.27-7.715-3.44-16.117-3.44-24.985 0-8.851 1.19-17.109 3.56-24.492 2.38-7.379 5.9-13.848 10.52-19.117 4.64-5.313 10.49-9.473 17.39-12.359 6.93-2.891 15-4.34 23.96-4.34 15.1 0 27.15 3.976 35.88 11.867 8.56 7.742 14.04 18.91 16.24 33.191h-18.86c-1.31-9.121-4.72-16.289-10.21-21.371-5.57-5.187-13.4-7.808-23.26-7.808M1686.06 463.559c-3.16 3.789-7.36 6.754-12.5 8.875-5.16 2.121-11.7 3.214-19.45 3.214-3.48 0-7.15-.402-10.9-1.164-3.71-.734-7.33-1.961-10.74-3.546-3.42-1.598-6.53-3.668-9.22-6.153-2.7-2.461-5.49-5.547-6.99-9.16l-.15-.391h-.89v63.286h-18.44V354.301h18.44v67.027c0 5.434.74 10.527 2.24 15.156 1.49 4.614 3.76 8.711 6.72 12.153 2.99 3.457 6.76 6.148 11.24 8.062 4.47 1.875 9.82 2.817 15.89 2.817 7.7 0 13.87-2.258 18.3-6.684 4.44-4.41 6.66-10.484 6.66-18.062v-80.469h18.46v78.14c0 6.411-.66 12.305-1.95 17.598-1.29 5.219-3.55 9.77-6.72 13.52M1739.3 424.414l.06.676c.31 4.64 1.33 9.14 3.07 13.293 1.7 4.156 4.08 7.832 7.07 10.972 2.99 3.125 6.6 5.625 10.76 7.434 4.12 1.809 8.85 2.727 14.04 2.727 5.02 0 9.65-.918 13.79-2.727 4.18-1.809 7.83-4.266 10.86-7.312 3.08-3.071 5.53-6.743 7.34-10.969a41.939 41.939 0 0 0 3.17-13.418l.06-.676zm79.08 28.109c-4.18 6.7-9.8 12.262-16.71 16.598-6.91 4.317-15.73 6.527-26.22 6.527-8.06 0-15.58-1.566-22.34-4.589-6.78-3.047-12.69-7.383-17.64-12.832-4.92-5.469-8.82-12.036-11.58-19.497-2.75-7.488-4.12-15.835-4.12-24.8.29-9.032 1.66-17.461 4-25.078 2.39-7.622 5.96-14.243 10.69-19.711 4.69-5.461 10.56-9.762 17.5-12.813 6.91-3.047 15.23-4.609 24.65-4.609 13.4 0 24.63 3.422 33.45 10.09 8.62 6.55 14.34 16.363 17 29.23h-18.18c-1.77-7.758-5.36-13.641-10.69-17.5-5.41-3.93-12.44-5.898-20.88-5.898-6.56 0-12.34 1.078-17.19 3.281-4.84 2.207-8.9 5.18-12.03 8.879-3.13 3.66-5.43 7.961-6.83 12.719-1.43 4.75-2.06 9.859-1.9 15.14l.02.621h89.71c.24 7.02-.43 14.492-1.99 22.192-1.61 7.91-4.54 15.332-8.72 22.05M2008.77 467.656c-3.37 2.727-7.5 4.731-12.27 6.035-4.81 1.289-10.25 1.957-16.18 1.957-7.74 0-14.92-1.781-21.38-5.265-6.45-3.508-11.71-8.508-15.63-14.824l-.72-1.161-.44 1.278c-2.38 7.219-6.58 12.39-12.42 15.398-5.92 3.031-12.62 4.574-19.88 4.574-16.54 0-30.1-6.781-38.87-20.121l-.19-.293h-.73v17.621h-17.28V354.301h18.44v74.004c0 2.359.59 5.386 1.75 8.867 1.2 3.531 3.09 6.988 5.67 10.269 2.6 3.301 6.01 6.184 10.17 8.516 4.15 2.363 9.2 3.559 15.02 3.559 4.54 0 8.34-.676 11.27-2.036 2.97-1.367 5.35-3.281 7.09-5.781 1.76-2.469 3-5.386 3.7-8.672.71-3.257 1.05-6.89 1.05-10.797v-77.929h18.46v74.004c0 9.383 2.85 17.027 8.51 22.675 5.65 5.665 13.54 8.536 23.4 8.536 4.84 0 8.88-.727 11.95-2.129 3.11-1.43 5.57-3.41 7.35-5.903 1.74-2.476 2.93-5.386 3.55-8.711.65-3.296.96-6.851.96-10.543v-77.929h18.44v87.195c0 6.067-.96 11.317-2.85 15.645-1.88 4.265-4.56 7.8-7.94 10.515M2070.26 472.855h-18.44V354.301h18.44zm0 22.809h-18.44v22.856h18.44v-22.856M2180.51 359.531c4.75 2.867 8.66 6.699 11.6 11.391 2.93 4.648 4.43 10.617 4.43 17.746 0 5.531-1.11 10.262-3.27 14.031-2.21 3.789-5.12 6.949-8.64 9.41-3.59 2.52-7.73 4.571-12.34 6.079a142.33 142.33 0 0 1-14.43 3.914 873.72 873.72 0 0 1-13.91 3.132c-4.66 1.016-8.91 2.266-12.62 3.735-3.75 1.48-6.89 3.418-9.33 5.679-2.52 2.368-3.8 5.375-3.8 8.95 0 3.203.82 5.879 2.45 7.925 1.6 2.012 3.7 3.618 6.25 4.797 2.5 1.18 5.33 2.024 8.4 2.493 6.44.996 12.71.996 18.79-.375 3.22-.68 6.21-1.856 8.86-3.399a20.274 20.274 0 0 0 6.7-6.348c1.64-2.5 2.68-5.64 3.07-9.351h18.44c-.51 6.875-2.03 12.676-4.51 17.281-2.58 4.738-6.05 8.574-10.34 11.328-4.33 2.832-9.37 4.824-14.96 5.957-5.65 1.133-11.91 1.742-18.65 1.742-5.17 0-10.44-.668-15.72-1.957-5.26-1.304-10.02-3.308-14.2-5.957-4.12-2.632-7.56-6.129-10.24-10.347-2.61-4.199-3.94-9.321-3.94-15.199 0-7.54 1.89-13.465 5.64-17.633 3.76-4.258 8.54-7.594 14.26-9.946 5.72-2.379 12.03-4.218 18.77-5.531 6.72-1.289 13.09-2.769 18.93-4.406 5.86-1.621 10.78-3.793 14.66-6.453 4.03-2.75 6.08-6.809 6.08-12.098 0-3.851-.98-7.062-2.93-9.562-1.9-2.481-4.36-4.368-7.31-5.637-2.89-1.25-6.11-2.133-9.55-2.602-7.81-1.05-14.94-.902-21.64.469-3.83.781-7.32 2.09-10.39 3.922-3.1 1.82-5.63 4.32-7.54 7.379-1.79 2.941-2.84 6.551-3.07 10.719h-18.43c.35-7.02 1.89-13.028 4.53-17.957 2.74-5.09 6.4-9.223 10.94-12.301 4.54-3.09 9.84-5.36 15.76-6.723 11.4-2.66 24.29-2.769 36.93-.348 6 1.11 11.47 3.161 16.27 6.051M2246.49 508.773h-18.46v-35.918h-19.66v-16.117h19.66v-76.886c0-5.473.55-9.954 1.61-13.25 1.05-3.262 2.67-5.84 4.8-7.571 2.15-1.793 4.99-3.031 8.51-3.703 3.56-.699 7.93-1.027 12.97-1.027h14.45v16.109h-8.41c-3.09 0-5.65.121-7.62.328-2.02.262-3.63.801-4.8 1.641-1.21.84-2.03 2.062-2.44 3.582-.42 1.437-.61 3.34-.61 5.738v75.039h24.59v16.117h-24.59v35.918M1234.45 508.773h-18.46v-35.918h-19.67v-16.117h19.67v-76.886c0-5.473.54-9.954 1.61-13.25 1.03-3.262 2.65-5.84 4.79-7.571 2.14-1.793 4.99-3.031 8.52-3.703 3.55-.699 7.92-1.027 12.97-1.027h14.44v16.109h-8.42c-3.08 0-5.64.121-7.6.328-2.03.262-3.65.801-4.82 1.641-1.2.84-2.02 2.062-2.44 3.582-.41 1.437-.59 3.34-.59 5.738v75.039h24.59v16.117h-24.59v35.918M2316.82 446.508l-.17-.332h-.65v26.679h-17.28V354.301h18.43v51.25c0 7.699.78 14.668 2.35 20.652 1.56 6.004 4.1 11.192 7.53 15.418 3.45 4.238 8.07 7.5 13.7 9.707 5.46 2.129 12.11 3.203 19.76 3.281v19.614c-10.2.191-18.77-1.965-25.43-6.41-6.83-4.547-13.51-11.715-18.24-21.305M2421.45 323.359c2.21 3.969 4.49 8.95 6.78 14.782l51.83 134.714h-19.47l-33.63-98.046h-1.35l-.16.453-34.86 97.593h-20.84L2417 354.34l-.09-.219-8.14-20.152c-1.91-3.707-4.14-6.508-6.66-8.379-2.57-1.961-5.99-2.922-10.13-2.922-2.05 0-4.1.32-6.13.961-1.63.512-3.23 1.062-4.83 1.59v-16.758c1.99-.699 4.06-1.172 6.18-1.473 2.28-.289 4.58-.437 6.87-.437 4.37 0 8.2.578 11.36 1.687 3.17 1.141 6.09 2.953 8.72 5.43 2.64 2.5 5.1 5.773 7.3 9.691" style="fill:#fff;fill-opacity:1;fill-rule:nonzero;stroke:none" transform="matrix(.13333 0 0 -.13333 0 188.987)"/></svg>